<svg width="512" height="512" viewBox="0 0 512 512" fill="none" xmlns="http://www.w3.org/2000/svg">
<mask id="mask0_207_201" style="mask-type:luminance" maskUnits="userSpaceOnUse" x="88" y="0" width="333" height="511">
<path d="M420.926 0H88.2524V511H420.926V0Z" fill="white"/>
</mask>
<g mask="url(#mask0_207_201)">
<path d="M392.339 92.1306C389.33 86.7393 386.242 81.4269 383.075 76.1943C356.15 30.3665 308.162 -0.158684 255.422 6.69545e-05C202.84 6.69545e-05 155.009 30.5252 128.164 76.1943C124.997 81.4269 121.908 86.8183 118.899 92.1306C96.8837 135.5 98.7054 157.621 104.961 203.687C108.525 231.041 107.733 258.393 110.109 285.748C111.851 304.222 113.831 323.092 116.682 341.486C118.978 355.757 122.145 370.108 127.847 383.429C136.479 403.884 151.842 420.535 166.65 436.63C190.802 462.794 202.918 470.881 240.217 478.414C243.701 478.73 253.362 481.03 255.342 481.506C255.342 481.585 255.342 481.506 255.5 481.506C255.658 481.506 255.658 481.506 255.658 481.506C257.639 480.95 267.22 478.73 270.784 478.334C308.082 470.802 320.198 462.794 344.351 436.55C359.159 420.376 374.601 403.806 383.153 383.349C388.934 370.028 392.022 355.757 394.319 341.406C397.17 323.012 399.229 304.062 400.892 285.669C403.347 258.315 402.476 230.961 406.039 203.607C412.295 157.463 414.117 135.421 392.102 92.0516L392.339 92.1306Z" fill="#EEEEEE"/>
<path d="M108.684 211.774C105.357 210.109 102.269 207.492 98.6265 206.778C93.3206 205.668 88.5694 211.06 88.4108 216.135C87.8562 222.081 89.2029 227.868 89.9943 233.737C90.945 242.775 94.3502 251.337 97.5173 259.821C99.339 264.975 101.16 270.287 101.477 275.917C101.952 280.594 102.269 285.51 102.823 290.108C103.14 294.549 103.298 299.147 104.565 303.269C105.753 307.79 108.763 311.595 111.534 315.242L115.097 318.81L119.374 295.897L123.967 246.263L115.097 218.513L108.684 211.774Z" fill="#EEEEEE"/>
<path d="M400.496 211.774C403.822 210.109 406.91 207.492 410.553 206.778C415.859 205.668 420.61 211.06 420.769 216.135C421.322 222.081 419.977 227.868 419.185 233.737C418.234 242.775 414.829 251.337 411.662 259.821C409.841 264.975 408.019 270.287 407.702 275.917C407.228 280.594 406.91 285.51 406.356 290.108C406.04 294.549 405.88 299.147 404.615 303.269C403.426 307.79 400.417 311.595 397.645 315.242L394.081 318.81L389.806 295.897L385.212 246.263L394.081 218.513L400.496 211.774Z" fill="#EEEEEE"/>
<path d="M255.975 510.842C256.53 511.079 257.401 510.921 258.431 510.842C268.725 510.287 281 509.81 291.611 509.255C294.382 509.097 294.937 509.097 296.916 507.432C298.421 506.164 299.925 504.896 301.509 503.626C304.519 501.09 308.319 497.917 311.171 495.539C313.546 493.478 313.942 493.398 315.289 491.733C322.415 482.774 362.96 445.431 380.54 423.626C381.649 422.199 381.649 422.438 382.362 420.138C386.796 405.629 391.786 389.058 396.22 374.787C397.249 371.139 397.883 369.95 398.279 367.572C398.595 357.027 401.288 263.469 401.446 255.777C399.229 263.706 392.577 321.189 380.778 340.931C376.74 347.591 357.813 372.328 351.874 377.562C350.37 378.83 344.746 371.615 342.767 369.236C339.124 364.875 331.127 355.124 326.691 349.891C325.108 347.988 324.236 346.798 321.782 346.322C321.465 346.322 321.148 346.164 320.752 346.085C313.546 344.261 303.41 342.676 296.282 339.9C293.116 338.632 289.235 337.046 285.988 335.698C283.217 334.587 281.078 333.557 278.227 335.143C273.793 337.125 268.804 339.583 264.449 341.566C261.044 342.992 257.401 346.243 255.818 349.891C254.233 346.243 250.59 342.992 247.185 341.566C242.83 339.503 237.841 337.125 233.406 335.143C230.556 333.557 228.418 334.587 225.646 335.698C222.399 337.046 218.519 338.632 215.351 339.9C208.224 342.676 198.088 344.261 190.882 346.085C190.486 346.164 190.17 346.243 189.852 346.322C187.398 346.798 186.527 347.988 184.943 349.891C180.508 355.202 172.51 364.875 168.867 369.236C166.888 371.615 161.265 378.83 159.761 377.562C153.821 372.328 134.816 347.591 130.856 340.931C118.978 321.189 112.405 263.627 110.188 255.777C110.346 263.389 113.039 357.027 113.355 367.572C113.751 369.95 114.385 371.06 115.414 374.787C119.77 389.137 124.838 405.629 129.273 420.138C129.985 422.516 129.906 422.199 131.094 423.626C148.674 445.431 189.219 482.774 196.346 491.733C197.692 493.398 198.088 493.478 200.464 495.539C203.314 497.917 207.116 501.09 210.125 503.626C211.709 504.974 213.214 506.164 214.718 507.432C216.777 509.097 217.252 509.097 220.024 509.255C230.556 509.81 242.909 510.287 253.203 510.842C254.313 510.842 255.104 511 255.658 510.842M255.818 357.502C257.718 361.942 262.311 363.686 266.587 366.858C268.171 368.047 270.15 369.474 271.576 370.425C273.555 371.853 275.535 371.853 278.149 371.615C281.554 371.298 285.117 370.981 288.522 370.663C291.768 370.346 293.828 370.268 296.837 371.218C298.975 371.853 301.351 372.646 303.489 373.359C308.24 374.787 311.408 376.451 315.685 378.592C317.664 379.781 320.831 380.574 320.911 383.111C320.515 389.216 318.694 404.439 318.06 410.941C317.902 412.131 317.822 413.241 317.426 414.271C311.724 422.754 304.36 431.793 298.262 440.197C296.282 443.289 294.778 443.131 291.532 443.289C287.73 443.528 283.454 443.766 279.653 444.003C276.327 444.003 273.793 445.113 272.684 441.941C271.18 437.819 268.645 430.128 267.22 425.767C266.35 423.389 266.032 421.327 266.666 418.948C267.616 413.557 269.992 403.171 270.626 397.542C270.626 395.877 268.883 395.48 267.537 395.004C265.954 394.529 263.577 393.814 261.36 393.101C261.044 392.784 260.727 392.467 260.489 392.15C259.223 390.961 257.639 391.119 256.054 391.516H255.658C254.075 391.119 252.491 390.961 251.224 392.15C250.908 392.388 250.67 392.705 250.353 393.101C248.056 393.814 245.76 394.529 244.176 395.004C242.83 395.48 241.088 395.877 241.088 397.542C241.721 403.171 244.097 413.557 245.047 418.948C245.681 421.327 245.364 423.468 244.493 425.767C242.989 430.048 240.533 437.74 239.028 441.941C237.92 445.113 235.386 444.083 232.061 444.003C228.259 443.766 223.982 443.528 220.181 443.289C216.935 443.131 215.431 443.289 213.45 440.197C207.353 431.714 199.989 422.754 194.287 414.271C193.891 413.241 193.812 412.131 193.654 410.941C193.02 404.439 191.198 389.137 190.802 383.111C190.802 380.574 194.05 379.781 196.029 378.592C200.305 376.451 203.474 374.787 208.224 373.359C210.363 372.646 212.738 371.853 214.876 371.218C217.886 370.188 219.944 370.346 223.19 370.663C226.596 370.981 230.16 371.298 233.565 371.615C236.178 371.931 238.158 371.853 240.138 370.425C241.563 369.474 243.542 367.968 245.126 366.858C249.403 363.607 253.996 361.942 255.896 357.502" fill="#222222"/>
<path d="M228.418 196.313C229.131 196.155 229.844 195.678 230.397 195.203C231.823 194.093 234.199 192.19 235.545 191.001C236.891 189.891 237.208 188.781 236.099 187.274C235.149 185.848 233.566 183.548 232.614 182.12C231.823 180.932 231.11 179.822 229.605 179.742C222.32 178.236 195.634 173.478 189.615 171.893C185.655 170.148 178.608 166.898 174.965 165.312C170.213 163.172 165.225 160.952 160.395 158.811C157.385 157.224 155.326 159.286 152.317 160.237C149.783 161.269 146.695 162.616 144.319 163.568C143.211 164.043 142.577 164.281 141.864 164.915C139.172 168.721 133.153 178.711 129.986 184.023C129.827 184.499 130.382 184.182 131.807 183.468C135.767 181.407 140.518 178.869 144.557 176.729C147.17 175.223 148.358 174.985 150.971 175.223C153.188 175.46 155.564 175.46 157.623 176.095C160.552 177.205 165.858 179.346 170.847 181.328C174.173 182.596 176.39 183.785 179.637 184.42C191.12 186.958 203.79 189.574 215.827 192.11C218.994 193.062 222.954 194.806 226.043 195.916C226.755 196.155 227.468 196.393 228.26 196.313H228.338H228.418Z" fill="#222222"/>
<path d="M269.755 194.648C269.755 194.013 270.23 193.459 270.626 192.983C271.655 191.873 273.317 190.287 274.269 189.336C274.902 188.781 275.535 188.146 276.406 187.988C281.792 187.829 298.817 187.988 306.657 187.988C308.874 187.988 309.745 188.067 311.645 187.75C315.763 187.036 332.868 183.945 340.074 182.675C342.133 182.438 342.925 181.882 344.509 182.279C349.578 184.182 365.969 190.604 373.967 193.617C375.868 194.252 376.66 194.807 377.848 196.155C378.877 197.343 379.828 198.85 377.689 199.563C375.71 200.277 372.779 201.069 370.642 201.704C369.216 202.101 368.187 201.942 366.603 201.784C358.684 201.149 343.638 199.009 337.778 199.009C328.434 199.881 310.775 201.466 304.281 202.022C297.154 202.022 280.999 202.022 275.93 202.022C274.664 202.022 273.873 201.149 273.159 200.277C272.051 198.612 269.912 196.868 269.675 194.807L269.755 194.648Z" fill="#222222"/>
</g>
</svg>
