<svg width="33" height="50" viewBox="0 0 33 50" fill="none" xmlns="http://www.w3.org/2000/svg">
<mask id="mask0_2_44" style="mask-type:luminance" maskUnits="userSpaceOnUse" x="0" y="0" width="33" height="50">
<path d="M32.5911 0H0V50H32.5911V0Z" fill="white"/>
</mask>
<g mask="url(#mask0_2_44)">
<path d="M29.7905 9.01473C29.4957 8.4872 29.1932 7.9674 28.8829 7.4554C26.2452 2.97127 21.5439 -0.0155341 16.3771 -7.34844e-07C11.2258 -7.34844e-07 6.53999 2.9868 3.90999 7.4554C3.59973 7.9674 3.29713 8.49493 3.00233 9.01473C0.845594 13.2583 1.02406 15.4228 1.63693 19.9302C1.98606 22.6067 1.90846 25.2831 2.14119 27.9597C2.31186 29.7673 2.50586 31.6137 2.78513 33.4135C3.01013 34.8099 3.32039 36.2141 3.87899 37.5175C4.72459 39.519 6.22966 41.1482 7.68039 42.7231C10.0465 45.2832 11.2335 46.0745 14.8875 46.8115C15.2289 46.8425 16.1753 47.0675 16.3693 47.1141C16.3693 47.1218 16.3693 47.1141 16.3848 47.1141C16.4003 47.1141 16.4003 47.1141 16.4003 47.1141C16.5943 47.0597 17.533 46.8425 17.8821 46.8037C21.5361 46.0667 22.7231 45.2832 25.0893 42.7153C26.54 41.1327 28.0528 39.5113 28.8906 37.5097C29.4569 36.2063 29.7595 34.8099 29.9845 33.4057C30.2638 31.6059 30.4655 29.7517 30.6284 27.9519C30.8689 25.2754 30.7836 22.5989 31.1327 19.9224C31.7455 15.4073 31.924 13.2506 29.7673 9.007L29.7905 9.01473Z" fill="#F6F6F6"/>
<path d="M2.00159 20.7215C1.67573 20.5586 1.37319 20.3025 1.01633 20.2327C0.496527 20.1241 0.0310596 20.6517 0.0155263 21.1482C-0.038807 21.73 0.093127 22.2963 0.17066 22.8705C0.263794 23.7549 0.597393 24.5927 0.90766 25.4228C1.08613 25.9271 1.26453 26.4469 1.29559 26.9977C1.34213 27.4554 1.37319 27.9364 1.42746 28.3863C1.45853 28.8208 1.47399 29.2707 1.59813 29.6741C1.71453 30.1164 2.00933 30.4887 2.28086 30.8456L2.62993 31.1947L3.04886 28.9527L3.49886 24.0962L2.62993 21.3809L2.00159 20.7215Z" fill="#F6F6F6"/>
<path d="M30.5896 20.7215C30.9155 20.5586 31.218 20.3025 31.5749 20.2327C32.0947 20.1241 32.5601 20.6517 32.5757 21.1482C32.6299 21.73 32.4981 22.2963 32.4205 22.8705C32.3274 23.7549 31.9938 24.5927 31.6835 25.4228C31.5051 25.9271 31.3266 26.4469 31.2956 26.9977C31.2491 27.4554 31.218 27.9364 31.1637 28.3863C31.1327 28.8208 31.1171 29.2707 30.9931 29.6741C30.8767 30.1164 30.5819 30.4887 30.3103 30.8456L29.9612 31.1947L29.5423 28.9527L29.0923 24.0962L29.9612 21.3809L30.5896 20.7215Z" fill="#F6F6F6"/>
<path d="M16.4313 49.9845C16.4857 50.0077 16.571 49.9923 16.6719 49.9845C17.6804 49.9302 18.8829 49.8836 19.9225 49.8293C20.1939 49.8138 20.2483 49.8138 20.4422 49.6509C20.5896 49.5268 20.737 49.4027 20.8922 49.2785C21.187 49.0303 21.5593 48.7199 21.8387 48.4872C22.0714 48.2855 22.1102 48.2777 22.2421 48.1148C22.9403 47.2382 26.9123 43.5842 28.6346 41.4507C28.7432 41.3111 28.7432 41.3344 28.8131 41.1094C29.2475 39.6897 29.7363 38.0683 30.1707 36.6719C30.2715 36.315 30.3336 36.1986 30.3724 35.9659C30.4034 34.9341 30.6672 25.7797 30.6827 25.0271C30.4655 25.8029 29.8138 31.4275 28.6579 33.3592C28.2623 34.0109 26.4081 36.4313 25.8263 36.9434C25.6789 37.0675 25.128 36.3615 24.9341 36.1288C24.5772 35.7021 23.7937 34.7479 23.3592 34.2359C23.2041 34.0497 23.1187 33.9333 22.8782 33.8867C22.8472 33.8867 22.8161 33.8712 22.7773 33.8635C22.0714 33.685 21.0784 33.5299 20.3801 33.2583C20.0699 33.1342 19.6897 32.9791 19.3716 32.8472C19.1001 32.7385 18.8906 32.6377 18.6113 32.7929C18.1769 32.9868 17.6881 33.2273 17.2615 33.4213C16.9279 33.5609 16.571 33.879 16.4159 34.2359C16.2607 33.879 15.9038 33.5609 15.5702 33.4213C15.1435 33.2195 14.6548 32.9868 14.2203 32.7929C13.9411 32.6377 13.7316 32.7385 13.4601 32.8472C13.142 32.9791 12.7619 33.1342 12.4515 33.2583C11.7533 33.5299 10.7603 33.685 10.0543 33.8635C10.0155 33.8712 9.98454 33.879 9.95347 33.8867C9.713 33.9333 9.62767 34.0497 9.47247 34.2359C9.038 34.7556 8.25447 35.7021 7.8976 36.1288C7.70367 36.3615 7.15287 37.0675 7.00547 36.9434C6.4236 36.4313 4.56167 34.0109 4.1738 33.3592C3.01014 31.4275 2.3662 25.7952 2.149 25.0271C2.16447 25.7719 2.42827 34.9341 2.45927 35.9659C2.49807 36.1986 2.56013 36.3072 2.661 36.6719C3.08767 38.076 3.5842 39.6897 4.01867 41.1094C4.08847 41.3421 4.08067 41.3111 4.19707 41.4507C5.91934 43.5842 9.8914 47.2382 10.5896 48.1148C10.7215 48.2777 10.7603 48.2855 10.9931 48.4872C11.2723 48.7199 11.6447 49.0303 11.9395 49.2785C12.0947 49.4104 12.2421 49.5268 12.3895 49.6509C12.5912 49.8138 12.6377 49.8138 12.9093 49.8293C13.9411 49.8836 15.1513 49.9302 16.1598 49.9845C16.2685 49.9845 16.346 50 16.4003 49.9845M16.4159 34.9806C16.6021 35.4151 17.052 35.5857 17.4709 35.8961C17.6261 36.0124 17.82 36.1521 17.9597 36.2451C18.1536 36.3848 18.3476 36.3848 18.6036 36.3615C18.9372 36.3305 19.2863 36.2995 19.6199 36.2684C19.9379 36.2374 20.1397 36.2297 20.4345 36.3227C20.6439 36.3848 20.8767 36.4624 21.0861 36.5322C21.5516 36.6719 21.8619 36.8347 22.2809 37.0442C22.4748 37.1606 22.7851 37.2382 22.7929 37.4864C22.7541 38.0838 22.5757 39.5733 22.5136 40.2095C22.4981 40.3259 22.4903 40.4345 22.4515 40.5353C21.8929 41.3654 21.1715 42.2498 20.5741 43.0721C20.3801 43.3747 20.2327 43.3592 19.9147 43.3747C19.5423 43.398 19.1234 43.4213 18.751 43.4445C18.4251 43.4445 18.1769 43.5531 18.0683 43.2428C17.9209 42.8394 17.6726 42.0869 17.533 41.6602C17.4477 41.4275 17.4166 41.2257 17.4787 40.993C17.5718 40.4655 17.8045 39.4492 17.8666 38.8984C17.8666 38.7355 17.6959 38.6967 17.564 38.6501C17.4089 38.6036 17.1761 38.5337 16.9589 38.4639C16.9279 38.4329 16.8969 38.4019 16.8735 38.3708C16.7495 38.2545 16.5943 38.27 16.4391 38.3088H16.4003C16.2452 38.27 16.09 38.2545 15.9659 38.3708C15.9349 38.3941 15.9116 38.4251 15.8805 38.4639C15.6555 38.5337 15.4306 38.6036 15.2754 38.6501C15.1435 38.6967 14.9729 38.7355 14.9729 38.8984C15.0349 39.4492 15.2677 40.4655 15.3607 40.993C15.4228 41.2257 15.3918 41.4352 15.3065 41.6602C15.1591 42.0791 14.9185 42.8317 14.7711 43.2428C14.6625 43.5531 14.4143 43.4523 14.0885 43.4445C13.7161 43.4213 13.2971 43.398 12.9247 43.3747C12.6067 43.3592 12.4593 43.3747 12.2653 43.0721C11.668 42.2421 10.9465 41.3654 10.3879 40.5353C10.3491 40.4345 10.3414 40.3259 10.3259 40.2095C10.2638 39.5733 10.0853 38.076 10.0465 37.4864C10.0465 37.2382 10.3647 37.1606 10.5586 37.0442C10.9775 36.8347 11.2879 36.6719 11.7533 36.5322C11.9628 36.4624 12.1955 36.3848 12.405 36.3227C12.6998 36.2219 12.9015 36.2374 13.2195 36.2684C13.5531 36.2995 13.9023 36.3305 14.2359 36.3615C14.4919 36.3925 14.6858 36.3848 14.8798 36.2451C15.0194 36.1521 15.2133 36.0047 15.3685 35.8961C15.7875 35.578 16.2374 35.4151 16.4236 34.9806" fill="#222222"/>
<path d="M13.7316 19.2087C13.8014 19.1932 13.8713 19.1466 13.9255 19.1001C14.0652 18.9915 14.2979 18.8053 14.4298 18.6889C14.5617 18.5803 14.5927 18.4717 14.4841 18.3243C14.391 18.1847 14.2359 17.9597 14.1427 17.82C14.0652 17.7037 13.9953 17.5951 13.8479 17.5873C13.1342 17.4399 10.5198 16.9744 9.9302 16.8193C9.54226 16.6485 8.85186 16.3305 8.49499 16.1753C8.02946 15.9659 7.54073 15.7487 7.06753 15.5392C6.77273 15.384 6.571 15.5857 6.2762 15.6788C6.02793 15.7797 5.72539 15.9115 5.49266 16.0047C5.38406 16.0512 5.32199 16.0745 5.25213 16.1365C4.98839 16.5089 4.39879 17.4864 4.08846 18.0062C4.07293 18.0527 4.12726 18.0217 4.26686 17.9519C4.65479 17.7502 5.12026 17.5019 5.51593 17.2925C5.77193 17.1451 5.88833 17.1218 6.14433 17.1451C6.36153 17.1683 6.59426 17.1683 6.79599 17.2304C7.08299 17.339 7.60279 17.5485 8.09153 17.7425C8.41739 17.8665 8.63459 17.9829 8.95266 18.045C10.0776 18.2933 11.3189 18.5493 12.4981 18.7975C12.8084 18.8906 13.1963 19.0613 13.4989 19.1699C13.5687 19.1932 13.6385 19.2165 13.7161 19.2087H13.7238H13.7316Z" fill="#222222"/>
<path d="M17.7813 19.0458C17.7813 18.9837 17.8278 18.9294 17.8666 18.8829C17.9674 18.7743 18.1303 18.6191 18.2235 18.526C18.2855 18.4717 18.3476 18.4096 18.4329 18.3941C18.9605 18.3786 20.6284 18.3941 21.3965 18.3941C21.6137 18.3941 21.699 18.4019 21.8852 18.3708C22.2886 18.301 23.9643 17.9985 24.6703 17.8743C24.872 17.8511 24.9496 17.7967 25.1047 17.8355C25.6013 18.0217 27.2071 18.6501 27.9907 18.9449C28.1769 19.007 28.2545 19.0613 28.3709 19.1932C28.4717 19.3095 28.5648 19.4569 28.3553 19.5267C28.1614 19.5966 27.8743 19.6741 27.6649 19.7362C27.5252 19.775 27.4244 19.7595 27.2692 19.744C26.4934 19.6819 25.0194 19.4725 24.4453 19.4725C23.5299 19.5578 21.7999 19.7129 21.1637 19.7673C20.4655 19.7673 18.8829 19.7673 18.3863 19.7673C18.2622 19.7673 18.1847 19.6819 18.1148 19.5966C18.0062 19.4337 17.7967 19.263 17.7735 19.0613L17.7813 19.0458Z" fill="#222222"/>
</g>
</svg>
